<?xml version="1.0" encoding="utf-8"?>
<!-- Generator: Adobe Illustrator 22.1.0, SVG Export Plug-In . SVG Version: 6.00 Build 0)  -->
<svg version="1.1" id="Camada_1" xmlns="http://www.w3.org/2000/svg" xmlns:xlink="http://www.w3.org/1999/xlink" x="0px" y="0px"
	 viewBox="0 0 733.3 206" style="enable-background:new 0 0 733.3 206;" xml:space="preserve">
<style type="text/css">
	.st0{fill:#333333;}
</style>
<g>
	<g>
		<path class="st0" d="M666.3,67.9L666.3,67.9L666.3,67.9c0,20.8-16.9,37.7-37.7,37.7v29c36.8,0,66.7-29.9,66.7-66.7h0v0
			c0-20.8,16.9-37.7,37.7-37.7v-29C696.2,1.2,666.3,31.1,666.3,67.9z"/>
		<g>
			<path class="st0" d="M66.4,134.6c36.8,0,66.7-29.9,66.7-66.7c0-36.8-29.9-66.7-66.7-66.7C29.6,1.2-0.3,31.1-0.3,67.9
				C-0.3,104.7,29.6,134.6,66.4,134.6z M66.4,30.2c20.8,0,37.7,16.9,37.7,37.7s-16.9,37.7-37.7,37.7S28.7,88.7,28.7,67.9
				S45.6,30.2,66.4,30.2z"/>
			<path class="st0" d="M104.1,139.2c0,20.8-16.9,37.7-37.7,37.7S28.7,160,28.7,139.2v0h-29v0c0,36.8,29.9,66.7,66.7,66.7
				c36.8,0,66.7-29.9,66.7-66.7v0L104.1,139.2L104.1,139.2z"/>
		</g>
		<path class="st0" d="M258,82.4h16.4c1-4.7,1.6-9.5,1.6-14.5c0-36.8-29.9-66.7-66.7-66.7c-36.8,0-66.7,29.9-66.7,66.7
			c0,36.8,29.9,66.7,66.7,66.7c23.7,0,44.5-12.4,56.3-31.1L241.1,88c-6.7,10.5-18.4,17.6-31.8,17.6c-15.7,0-29.1-9.6-34.8-23.2H258
			L258,82.4z M209.3,30.2c15.7,0,29.1,9.6,34.8,23.2h-69.6C180.2,39.8,193.6,30.2,209.3,30.2z"/>
		<path class="st0" d="M469.4,82.4h16.4c1-4.7,1.6-9.5,1.6-14.5c0-36.8-29.9-66.7-66.7-66.7c-36.8,0-66.7,29.9-66.7,66.7
			c0,36.8,29.9,66.7,66.7,66.7c23.7,0,44.5-12.4,56.3-31.1L452.6,88c-6.7,10.5-18.4,17.6-31.8,17.6c-15.7,0-29.1-9.6-34.8-23.2
			H469.4L469.4,82.4z M420.8,30.2c15.7,0,29.1,9.6,34.8,23.2H386C391.6,39.8,405.1,30.2,420.8,30.2z"/>
		<path class="st0" d="M285.5,67.9L285.5,67.9L285.5,67.9L285.5,67.9v66.7h29.1V67.9h0c0-20.8,16.9-37.7,37.7-37.7v-29
			C315.4,1.2,285.5,31.1,285.5,67.9z"/>
		<path class="st0" d="M558-0.1c-32.8,0-59.5,26.6-59.5,59.5l0,0v75.3h29V59.3l0,0c0-16.8,13.6-30.4,30.4-30.4
			c16.8,0,30.4,13.6,30.4,30.4v75.3h29V59.3C617.5,26.5,590.9-0.1,558-0.1z"/>
	</g>
	<g>
		<g>
			<path class="st0" d="M643,51c-14.1,0-25.5-11.5-25.5-25.5S628.9-0.1,643-0.1c14.1,0,25.5,11.5,25.5,25.5S657.1,51,643,51z
				 M643,5.1c-11.2,0-20.3,9.1-20.3,20.3s9.1,20.3,20.3,20.3s20.3-9.1,20.3-20.3S654.2,5.1,643,5.1z"/>
		</g>
		<g>
			<path class="st0" d="M654.9,38.8c0,0.2,0,0.3-0.1,0.4c-0.1,0.1-0.2,0.2-0.4,0.3c-0.2,0.1-0.5,0.1-1,0.2c-0.4,0-1,0-1.7,0
				c-0.6,0-1.1,0-1.5,0c-0.4,0-0.7-0.1-0.9-0.2c-0.2-0.1-0.4-0.2-0.5-0.3s-0.2-0.3-0.2-0.5l-2.6-6.4c-0.3-0.7-0.6-1.4-0.9-1.9
				c-0.3-0.6-0.6-1-1-1.4c-0.4-0.4-0.8-0.7-1.2-0.8s-1-0.3-1.6-0.3h-1.8v10.9c0,0.1,0,0.3-0.1,0.4c-0.1,0.1-0.3,0.2-0.5,0.3
				c-0.2,0.1-0.5,0.1-0.9,0.2c-0.4,0-0.8,0.1-1.4,0.1c-0.6,0-1,0-1.4-0.1c-0.4,0-0.7-0.1-0.9-0.2c-0.2-0.1-0.4-0.2-0.5-0.3
				c-0.1-0.1-0.1-0.2-0.1-0.4V12.8c0-0.6,0.2-1.1,0.5-1.4c0.3-0.3,0.7-0.4,1.2-0.4h7.4c0.7,0,1.4,0,1.9,0c0.5,0,0.9,0.1,1.3,0.1
				c1.1,0.2,2.2,0.4,3.1,0.8c0.9,0.4,1.7,0.9,2.3,1.6c0.6,0.6,1.1,1.4,1.5,2.3c0.3,0.9,0.5,1.9,0.5,3c0,1-0.1,1.8-0.4,2.6
				c-0.2,0.8-0.6,1.5-1.1,2.1c-0.5,0.6-1.1,1.2-1.7,1.6c-0.7,0.5-1.5,0.8-2.4,1.1c0.4,0.2,0.8,0.5,1.2,0.7c0.4,0.3,0.7,0.7,1.1,1.1
				c0.3,0.4,0.6,0.9,0.9,1.4c0.3,0.5,0.6,1.1,0.9,1.8l2.4,5.6c0.2,0.6,0.4,1,0.4,1.2C654.9,38.4,654.9,38.6,654.9,38.8z M647.4,19.4
				c0-0.9-0.2-1.7-0.6-2.4c-0.4-0.6-1.1-1.1-2.1-1.4c-0.3-0.1-0.6-0.1-1-0.2c-0.4,0-0.9-0.1-1.6-0.1h-2.6v8.1h3
				c0.8,0,1.5-0.1,2.2-0.3c0.6-0.2,1.1-0.5,1.5-0.8c0.4-0.4,0.7-0.8,0.9-1.3C647.3,20.6,647.4,20,647.4,19.4z"/>
		</g>
	</g>
</g>
</svg>
